<svg width="100" height="100" viewBox="0 0 100 100" xmlns="http://www.w3.org/2000/svg">
                    <defs>
                        <linearGradient id="gradient6" x1="0%" y1="0%" x2="100%" y2="100%">
                            <stop offset="0%" style="stop-color:#fa709a;stop-opacity:1" />
                            <stop offset="100%" style="stop-color:#fee140;stop-opacity:1" />
                        </linearGradient>
                    </defs>
                    <g transform="translate(50,50)">
                        <path d="M0,-48 L0,-2 L0,8 L0,-2 Z" stroke="url(#gradient6)" stroke-width="4" fill="none" opacity="0.9" transform="rotate(0)" />
                        <path d="M0,-48 L0,-2 L0,8 L0,-2 Z" stroke="url(#gradient6)" stroke-width="4" fill="none" opacity="0.9" transform="rotate(30)" />
                        <path d="M0,-48 L0,-2 L0,8 L0,-2 Z" stroke="url(#gradient6)" stroke-width="4" fill="none" opacity="0.9" transform="rotate(60)" />
                        <path d="M0,-48 L0,-2 L0,8 L0,-2 Z" stroke="url(#gradient6)" stroke-width="4" fill="none" opacity="0.9" transform="rotate(90)" />
                        <path d="M0,-48 L0,-2 L0,8 L0,-2 Z" stroke="url(#gradient6)" stroke-width="4" fill="none" opacity="0.9" transform="rotate(120)" />
                        <path d="M0,-48 L0,-2 L0,8 L0,-2 Z" stroke="url(#gradient6)" stroke-width="4" fill="none" opacity="0.9" transform="rotate(150)" />
                        <path d="M0,-48 L0,-2 L0,8 L0,-2 Z" stroke="url(#gradient6)" stroke-width="4" fill="none" opacity="0.9" transform="rotate(180)" />
                        <path d="M0,-48 L0,-2 L0,8 L0,-2 Z" stroke="url(#gradient6)" stroke-width="4" fill="none" opacity="0.9" transform="rotate(210)" />
                        <path d="M0,-48 L0,-2 L0,8 L0,-2 Z" stroke="url(#gradient6)" stroke-width="4" fill="none" opacity="0.9" transform="rotate(240)" />
                        <path d="M0,-48 L0,-2 L0,8 L0,-2 Z" stroke="url(#gradient6)" stroke-width="4" fill="none" opacity="0.9" transform="rotate(270)" />
                        <path d="M0,-48 L0,-2 L0,8 L0,-2 Z" stroke="url(#gradient6)" stroke-width="4" fill="none" opacity="0.9" transform="rotate(300)" />
                        <path d="M0,-48 L0,-2 L0,8 L0,-2 Z" stroke="url(#gradient6)" stroke-width="4" fill="none" opacity="0.9" transform="rotate(330)" />
                        <circle r="25" fill="none" stroke="url(#gradient6)" stroke-width="4" />
                        <circle r="12" fill="url(#gradient6)" />
                    </g>
                </svg>